<svg xmlns="http://www.w3.org/2000/svg" viewBox="53.00 -882.00 7469.00 931.00"><path data-svg-property="fill" fill="white" d="M93.0 0V-793H219.0V-455H382.0Q389.0 -455 391.0 -458.5Q393.0 -462 396.0 -469L533.0 -793H659.0L535.0 -506Q516.0 -462 501.5 -437.5Q487.0 -413 462.0 -401Q490.0 -390 506.5 -365.0Q523.0 -340 545.0 -295L689.0 0H555.0L396.0 -333Q393.0 -340 391.0 -343.0Q389.0 -346 381.0 -346H219.0V0Z M1195.0 -842V0H1088.0L1076.0 -70Q1068.0 -31 1041.5 -11.0Q1015.0 9 966.0 9H896.0Q821.0 9 786.5 -20.5Q752.0 -50 752.0 -126V-473Q752.0 -553 788.5 -584.5Q825.0 -616 910.0 -615L1073.0 -614V-842ZM885.0 -89H1060.0Q1073.0 -89 1073.0 -103V-516L885.0 -518Q872.0 -518 872.0 -504V-103Q872.0 -89 885.0 -89Z M1448.0 9Q1373.0 9 1338.5 -20.5Q1304.0 -50 1304.0 -126V-216Q1304.0 -296 1340.5 -327.5Q1377.0 -359 1462.0 -359H1619.0V-498Q1619.0 -511 1606.0 -511L1341.0 -510V-613H1579.0Q1665.0 -614 1703.0 -580.5Q1741.0 -547 1741.0 -464V0H1632.0L1622.0 -69Q1614.0 -30 1587.5 -10.5Q1561.0 9 1512.0 9ZM1619.0 -89V-271H1437.0Q1424.0 -271 1424.0 -258V-103Q1424.0 -89 1437.0 -89Z M2143.0 -621Q2202.0 -621 2236.0 -603.0Q2270.0 -585 2282.0 -542Q2300.0 -621 2396.0 -621H2452.0Q2528.0 -621 2562.5 -591.0Q2597.0 -561 2597.0 -485V0H2476.0V-509Q2476.0 -523 2463.0 -523H2302.0Q2289.0 -523 2289.0 -509L2288.0 -505Q2289.0 -495 2289.0 -485V0H2167.0V-509Q2167.0 -523 2154.0 -523H1991.0Q1978.0 -523 1978.0 -509L1980.0 0H1858.0L1857.0 -612H1965.0L1974.0 -550Q1994.0 -621 2085.0 -621Z  M3082.0 0V-684H2889.0V-793H3400.0V-684H3208.0V0Z M3770.0 -621Q3846.0 -621 3881.0 -591.0Q3916.0 -561 3916.0 -485V0H3794.0V-509Q3794.0 -523 3781.0 -523H3606.0Q3593.0 -523 3593.0 -509L3594.0 0H3473.0L3472.0 -842H3593.0V-564Q3617.0 -621 3700.0 -621Z M4318.0 -621Q4377.0 -621 4411.0 -603.0Q4445.0 -585 4457.0 -542Q4475.0 -621 4571.0 -621H4627.0Q4703.0 -621 4737.5 -591.0Q4772.0 -561 4772.0 -485V0H4651.0V-509Q4651.0 -523 4638.0 -523H4477.0Q4464.0 -523 4464.0 -509L4463.0 -505Q4464.0 -495 4464.0 -485V0H4342.0V-509Q4342.0 -523 4329.0 -523H4166.0Q4153.0 -523 4153.0 -509L4155.0 0H4033.0L4032.0 -612H4140.0L4149.0 -550Q4169.0 -621 4260.0 -621Z M4880.0 -469Q4880.0 -552 4920.0 -586.5Q4960.0 -621 5051.0 -621H5160.0Q5252.0 -621 5292.0 -586.5Q5332.0 -552 5332.0 -469V-143Q5332.0 -60 5292.0 -25.5Q5252.0 9 5160.0 9H5051.0Q4960.0 9 4920.0 -25.5Q4880.0 -60 4880.0 -143ZM5016.0 -520Q5002.0 -520 5002.0 -506V-106Q5002.0 -92 5016.0 -92H5197.0Q5210.0 -92 5210.0 -106V-506Q5210.0 -520 5197.0 -520Z M5742.0 -621V-523H5591.0Q5577.0 -523 5577.0 -509L5578.0 0H5458.0L5456.0 -612H5564.0L5573.0 -550Q5593.0 -621 5684.0 -621Z  M6065.0 0V-793L6400.0 -798Q6493.0 -800 6540.0 -756.5Q6587.0 -713 6587.0 -628V-466Q6587.0 -386 6540.0 -339.5Q6493.0 -293 6400.0 -293H6191.0V0ZM6442.0 -688H6191.0V-402H6442.0Q6458.0 -402 6458.0 -418V-672Q6458.0 -688 6442.0 -688Z M6975.0 -621V-523H6824.0Q6810.0 -523 6810.0 -509L6811.0 0H6691.0L6689.0 -612H6797.0L6806.0 -550Q6826.0 -621 6917.0 -621Z M7030.0 -469Q7030.0 -552 7070.0 -586.5Q7110.0 -621 7201.0 -621H7310.0Q7402.0 -621 7442.0 -586.5Q7482.0 -552 7482.0 -469V-143Q7482.0 -60 7442.0 -25.5Q7402.0 9 7310.0 9H7201.0Q7110.0 9 7070.0 -25.5Q7030.0 -60 7030.0 -143ZM7166.0 -520Q7152.0 -520 7152.0 -506V-106Q7152.0 -92 7166.0 -92H7347.0Q7360.0 -92 7360.0 -106V-506Q7360.0 -520 7347.0 -520Z"/></svg>
