<svg xmlns="http://www.w3.org/2000/svg" viewBox="0.00 -749.00 4079.00 799.00"><path data-svg-property="fill" fill="white" d="M40.0 -59V-681Q40.0 -702 141.5 -702.0Q243.0 -702 243.0 -681V-191H397.0Q415.0 -191 422.0 -144Q425.0 -121 425.0 -97.0Q425.0 -73 422.0 -48Q414.0 0 396.0 0H88.0Q66.0 0 53.0 -18.0Q40.0 -36 40.0 -59Z M663.0 -6Q663.0 2 571.5 2.0Q480.0 2 480.0 -5V-496Q480.0 -503 571.5 -503.0Q663.0 -503 663.0 -497ZM663.0 -556Q663.0 -549 571.5 -549.0Q480.0 -549 480.0 -555V-699Q480.0 -709 571.5 -709.0Q663.0 -709 663.0 -703Z M935.0 -8Q935.0 1 833.0 1Q753.0 0 753.0 -7V-688Q753.0 -703 850.0 -703Q935.0 -700 935.0 -693Z M1208.0 -6Q1208.0 2 1116.5 2.0Q1025.0 2 1025.0 -5V-496Q1025.0 -503 1116.5 -503.0Q1208.0 -503 1208.0 -497ZM1208.0 -556Q1208.0 -549 1116.5 -549.0Q1025.0 -549 1025.0 -555V-699Q1025.0 -709 1116.5 -709.0Q1208.0 -709 1208.0 -703Z M1528.0 -6Q1528.0 6 1444.0 6Q1344.0 2 1344.0 -7V-361H1293.0Q1273.0 -361 1273.0 -430Q1273.0 -448 1276.5 -474.0Q1280.0 -500 1291.0 -500H1344.0V-588Q1344.0 -608 1428.5 -608.0Q1513.0 -608 1513.0 -592V-528L1514.0 -500H1599.0Q1616.0 -500 1616.0 -430.0Q1616.0 -360 1599.0 -360H1528.0Z M1729.0 -363Q1701.0 -413 1701.0 -444.5Q1701.0 -476 1718.0 -485Q1775.0 -510 1874.5 -510.0Q1974.0 -510 2015.0 -463.5Q2056.0 -417 2056.0 -326V-168H2090.0Q2107.0 -168 2116.5 -148.0Q2126.0 -128 2126.0 -93.0Q2126.0 -58 2108.5 -24.0Q2091.0 10 2061.0 10Q2007.0 10 1974.0 -19Q1959.0 -31 1951.0 -48Q1905.0 10 1808.0 10Q1735.0 10 1685.0 -42.0Q1635.0 -94 1635.0 -165Q1635.0 -328 1830.0 -328H1885.0V-338Q1885.0 -364 1876.5 -371.5Q1868.0 -379 1837.0 -379Q1799.0 -379 1729.0 -363ZM1809.0 -179Q1809.0 -157 1821.0 -145.5Q1833.0 -134 1851.5 -134.0Q1870.0 -134 1885.0 -149V-226H1857.0Q1809.0 -226 1809.0 -179Z  M2673.5 10.0Q2533.0 10 2444.5 -82.0Q2356.0 -174 2356.0 -350.5Q2356.0 -527 2445.5 -618.0Q2535.0 -709 2676.5 -709.0Q2818.0 -709 2905.0 -619.5Q2992.0 -530 2992.0 -348.5Q2992.0 -167 2903.0 -78.5Q2814.0 10 2673.5 10.0ZM2674.0 -517.0Q2626.0 -517 2593.5 -473.0Q2561.0 -429 2561.0 -349.5Q2561.0 -270 2592.0 -227.5Q2623.0 -185 2673.5 -185.0Q2724.0 -185 2755.5 -228.0Q2787.0 -271 2787.0 -351.0Q2787.0 -431 2754.5 -474.0Q2722.0 -517 2674.0 -517.0Z M3276.0 -6Q3276.0 1 3204.0 1Q3104.0 -2 3104.0 -10V-334H3078.0Q3052.0 -334 3044.0 -378Q3042.0 -391 3042.0 -404Q3042.0 -435 3054.0 -466Q3072.0 -510 3110.0 -510.0Q3148.0 -510 3178.0 -492.0Q3208.0 -474 3218.0 -456Q3281.0 -510 3368.0 -510.0Q3455.0 -510 3494.0 -463.0Q3533.0 -416 3533.0 -309V-9Q3533.0 3 3447.5 3.0Q3362.0 3 3362.0 -9V-298Q3362.0 -348 3327.0 -348Q3317.0 -348 3299.0 -339.5Q3281.0 -331 3276.0 -327Z M3996.0 -27Q3933.0 10 3834.0 10.0Q3735.0 10 3667.0 -57.5Q3599.0 -125 3599.0 -244.5Q3599.0 -364 3664.5 -437.0Q3730.0 -510 3830.0 -510.0Q3930.0 -510 3984.5 -459.0Q4039.0 -408 4039.0 -335Q4039.0 -173 3853.0 -173H3784.0Q3784.0 -143 3800.5 -131.5Q3817.0 -120 3849.0 -120Q3919.0 -120 3982.0 -152Q3983.0 -153 3991.0 -138Q4015.0 -95 4015.0 -65.5Q4015.0 -36 3996.0 -27ZM3871.0 -316Q3871.0 -358 3830.0 -358Q3811.0 -358 3797.5 -346.5Q3784.0 -335 3784.0 -313V-282H3838.0Q3871.0 -282 3871.0 -316Z"/></svg>
