<svg xmlns="http://www.w3.org/2000/svg" viewBox="9.00 -754.00 7877.00 803.00"><path data-svg-property="fill" fill="white" d="M49.0 0 161.0 -705H224.0L574.0 -100H553.0L648.0 -705H725.0L613.0 0H550.0L200.0 -605H221.0L125.0 0Z M949.0 9Q897.0 9 860.5 -13.0Q824.0 -35 809.0 -79.5Q794.0 -124 805.0 -193L851.0 -486H932.0L886.0 -193Q879.0 -148 886.0 -118.0Q893.0 -88 915.0 -73.0Q937.0 -58 973.0 -58Q1020.0 -58 1054.0 -78.5Q1088.0 -99 1110.0 -136.0Q1132.0 -173 1140.0 -223L1181.0 -486H1262.0L1185.0 0H1106.0L1123.0 -110H1133.0Q1110.0 -54 1061.5 -22.5Q1013.0 9 949.0 9Z M1337.0 0 1415.0 -486H1494.0L1476.0 -376H1466.0Q1491.0 -433 1539.5 -464.0Q1588.0 -495 1655.0 -495Q1709.0 -495 1745.5 -473.5Q1782.0 -452 1797.5 -407.5Q1813.0 -363 1802.0 -294L1756.0 0H1675.0L1721.0 -294Q1729.0 -339 1721.0 -369.0Q1713.0 -399 1691.0 -414.0Q1669.0 -429 1631.0 -429Q1583.0 -429 1547.0 -408.5Q1511.0 -388 1489.5 -351.0Q1468.0 -314 1460.0 -264L1418.0 0Z M1993.0 -607 2007.0 -698H2107.0L2092.0 -607ZM1905.0 0 1982.0 -486H2063.0L1986.0 0Z M2338.0 9Q2281.0 9 2244.5 -13.0Q2208.0 -35 2193.5 -74.0Q2179.0 -113 2187.0 -167L2228.0 -423H2132.0L2143.0 -486H2238.0L2261.0 -635H2342.0L2319.0 -486H2473.0L2462.0 -423H2308.0L2269.0 -175Q2260.0 -114 2282.0 -87.0Q2304.0 -60 2353.0 -60Q2370.0 -60 2385.0 -63.5Q2400.0 -67 2412.0 -71L2420.0 -8Q2407.0 -1 2383.5 4.0Q2360.0 9 2338.0 9Z M2705.0 9Q2640.0 9 2592.5 -17.0Q2545.0 -43 2519.5 -91.0Q2494.0 -139 2494.0 -205Q2494.0 -267 2512.5 -319.5Q2531.0 -372 2565.0 -412.0Q2599.0 -452 2645.5 -473.5Q2692.0 -495 2751.0 -495Q2816.0 -495 2863.5 -469.0Q2911.0 -443 2936.0 -395.5Q2961.0 -348 2961.0 -281Q2961.0 -219 2943.0 -166.5Q2925.0 -114 2891.0 -74.5Q2857.0 -35 2810.0 -13.0Q2763.0 9 2705.0 9ZM2708.0 -56Q2763.0 -56 2801.5 -87.0Q2840.0 -118 2859.5 -170.0Q2879.0 -222 2879.0 -284Q2879.0 -356 2844.5 -393.0Q2810.0 -430 2748.0 -430Q2693.0 -430 2654.5 -399.0Q2616.0 -368 2596.0 -317.0Q2576.0 -266 2576.0 -202Q2576.0 -131 2611.0 -93.5Q2646.0 -56 2708.0 -56Z  M3560.0 9Q3509.0 9 3460.5 0.0Q3412.0 -9 3369.0 -28.0Q3326.0 -47 3291.0 -77L3325.0 -140Q3362.0 -111 3400.0 -94.5Q3438.0 -78 3479.5 -71.0Q3521.0 -64 3567.0 -64Q3621.0 -64 3661.0 -79.0Q3701.0 -94 3723.5 -122.5Q3746.0 -151 3746.0 -189Q3746.0 -216 3733.5 -237.5Q3721.0 -259 3692.5 -275.5Q3664.0 -292 3615.0 -302L3512.0 -327Q3442.0 -344 3400.0 -385.0Q3358.0 -426 3358.0 -503Q3358.0 -551 3378.5 -590.0Q3399.0 -629 3435.0 -656.5Q3471.0 -684 3519.0 -699.0Q3567.0 -714 3621.0 -714Q3688.0 -714 3753.5 -693.0Q3819.0 -672 3866.0 -625L3831.0 -562Q3786.0 -605 3731.5 -623.0Q3677.0 -641 3619.0 -641Q3569.0 -641 3528.0 -624.5Q3487.0 -608 3464.0 -578.5Q3441.0 -549 3441.0 -508Q3441.0 -458 3466.5 -433.5Q3492.0 -409 3542.0 -396L3646.0 -372Q3740.0 -350 3784.5 -305.5Q3829.0 -261 3829.0 -198Q3829.0 -148 3808.0 -109.0Q3787.0 -70 3750.0 -44.0Q3713.0 -18 3664.5 -4.5Q3616.0 9 3560.0 9Z M4077.0 9Q4035.0 9 3998.5 -10.0Q3962.0 -29 3940.0 -62.0Q3918.0 -95 3918.0 -137Q3918.0 -189 3946.5 -220.5Q3975.0 -252 4036.0 -267.0Q4097.0 -282 4193.0 -282H4273.0L4265.0 -229H4204.0Q4127.0 -229 4082.5 -221.0Q4038.0 -213 4019.0 -194.0Q4000.0 -175 4000.0 -142Q4000.0 -98 4029.5 -75.0Q4059.0 -52 4097.0 -52Q4134.0 -52 4165.5 -68.0Q4197.0 -84 4219.0 -115.5Q4241.0 -147 4248.0 -190L4267.0 -312Q4277.0 -370 4252.5 -400.0Q4228.0 -430 4164.0 -430Q4119.0 -430 4078.5 -418.0Q4038.0 -406 3999.0 -379L3976.0 -438Q4000.0 -456 4032.0 -468.5Q4064.0 -481 4100.5 -488.0Q4137.0 -495 4173.0 -495Q4241.0 -495 4281.5 -469.5Q4322.0 -444 4337.0 -398.0Q4352.0 -352 4342.0 -290L4296.0 0H4219.0L4236.0 -110H4246.0Q4233.0 -70 4206.5 -43.5Q4180.0 -17 4146.0 -4.0Q4112.0 9 4077.0 9Z M4445.0 0 4523.0 -486H4602.0L4584.0 -376H4574.0Q4599.0 -433 4647.5 -464.0Q4696.0 -495 4763.0 -495Q4817.0 -495 4853.5 -473.5Q4890.0 -452 4905.5 -407.5Q4921.0 -363 4910.0 -294L4864.0 0H4783.0L4829.0 -294Q4837.0 -339 4829.0 -369.0Q4821.0 -399 4799.0 -414.0Q4777.0 -429 4739.0 -429Q4691.0 -429 4655.0 -408.5Q4619.0 -388 4597.5 -351.0Q4576.0 -314 4568.0 -264L4526.0 0Z M5199.0 9Q5140.0 9 5089.0 -7.0Q5038.0 -23 5006.0 -51L5036.0 -107Q5060.0 -88 5086.5 -76.5Q5113.0 -65 5141.5 -59.0Q5170.0 -53 5200.0 -53Q5254.0 -53 5284.5 -74.5Q5315.0 -96 5315.0 -135Q5315.0 -160 5298.5 -176.5Q5282.0 -193 5251.0 -200L5156.0 -223Q5106.0 -235 5077.5 -266.5Q5049.0 -298 5049.0 -344Q5049.0 -387 5073.0 -421.5Q5097.0 -456 5142.0 -475.5Q5187.0 -495 5248.0 -495Q5281.0 -495 5313.0 -488.0Q5345.0 -481 5372.5 -467.0Q5400.0 -453 5418.0 -434L5390.0 -379Q5361.0 -407 5324.0 -420.0Q5287.0 -433 5245.0 -433Q5189.0 -433 5157.0 -410.0Q5125.0 -387 5125.0 -348Q5125.0 -324 5140.0 -306.5Q5155.0 -289 5185.0 -282L5280.0 -259Q5333.0 -246 5362.5 -216.5Q5392.0 -187 5392.0 -140Q5392.0 -94 5368.0 -60.5Q5344.0 -27 5300.5 -9.0Q5257.0 9 5199.0 9Z  M5763.0 0 5875.0 -705H5957.0L5845.0 0Z M6209.0 9Q6152.0 9 6115.5 -13.0Q6079.0 -35 6064.5 -74.0Q6050.0 -113 6058.0 -167L6099.0 -423H6003.0L6014.0 -486H6109.0L6132.0 -635H6213.0L6190.0 -486H6344.0L6333.0 -423H6179.0L6140.0 -175Q6131.0 -114 6153.0 -87.0Q6175.0 -60 6224.0 -60Q6241.0 -60 6256.0 -63.5Q6271.0 -67 6283.0 -71L6291.0 -8Q6278.0 -1 6254.5 4.0Q6231.0 9 6209.0 9Z M6520.0 9Q6478.0 9 6441.5 -10.0Q6405.0 -29 6383.0 -62.0Q6361.0 -95 6361.0 -137Q6361.0 -189 6389.5 -220.5Q6418.0 -252 6479.0 -267.0Q6540.0 -282 6636.0 -282H6716.0L6708.0 -229H6647.0Q6570.0 -229 6525.5 -221.0Q6481.0 -213 6462.0 -194.0Q6443.0 -175 6443.0 -142Q6443.0 -98 6472.5 -75.0Q6502.0 -52 6540.0 -52Q6577.0 -52 6608.5 -68.0Q6640.0 -84 6662.0 -115.5Q6684.0 -147 6691.0 -190L6710.0 -312Q6720.0 -370 6695.5 -400.0Q6671.0 -430 6607.0 -430Q6562.0 -430 6521.5 -418.0Q6481.0 -406 6442.0 -379L6419.0 -438Q6443.0 -456 6475.0 -468.5Q6507.0 -481 6543.5 -488.0Q6580.0 -495 6616.0 -495Q6684.0 -495 6724.5 -469.5Q6765.0 -444 6780.0 -398.0Q6795.0 -352 6785.0 -290L6739.0 0H6662.0L6679.0 -110H6689.0Q6676.0 -70 6649.5 -43.5Q6623.0 -17 6589.0 -4.0Q6555.0 9 6520.0 9Z M7038.0 9Q6966.0 9 6933.0 -33.5Q6900.0 -76 6913.0 -159L7000.0 -705H7081.0L6994.0 -159Q6989.0 -124 6994.0 -102.0Q6999.0 -80 7016.5 -70.0Q7034.0 -60 7062.0 -60Q7074.0 -60 7085.5 -61.5Q7097.0 -63 7109.0 -65L7097.0 1Q7084.0 5 7068.5 7.0Q7053.0 9 7038.0 9Z M7272.0 -607 7286.0 -698H7386.0L7371.0 -607ZM7184.0 0 7261.0 -486H7342.0L7265.0 0Z M7637.0 9Q7565.0 9 7518.0 -18.0Q7471.0 -45 7447.5 -94.0Q7424.0 -143 7424.0 -207Q7424.0 -261 7439.0 -312.5Q7454.0 -364 7486.0 -405.0Q7518.0 -446 7567.0 -470.5Q7616.0 -495 7684.0 -495Q7732.0 -495 7776.0 -479.0Q7820.0 -463 7846.0 -436L7817.0 -378Q7792.0 -403 7759.0 -416.0Q7726.0 -429 7687.0 -429Q7638.0 -429 7604.0 -410.0Q7570.0 -391 7548.5 -359.0Q7527.0 -327 7517.0 -287.5Q7507.0 -248 7507.0 -208Q7507.0 -140 7539.5 -98.5Q7572.0 -57 7647.0 -57Q7678.0 -57 7711.5 -69.5Q7745.0 -82 7774.0 -108L7798.0 -48Q7779.0 -30 7752.0 -17.5Q7725.0 -5 7695.5 2.0Q7666.0 9 7637.0 9Z"/></svg>
